<svg width="96" height="96" xmlns="http://www.w3.org/2000/svg" xmlns:svg="http://www.w3.org/2000/svg">
  <g>
    <path d="m6.5,47.5c23.74,-34 61.1,-6 76,39" fill="none" id="svg_2" stroke="#000000" stroke-linecap="round" stroke-linejoin="round" stroke-width="5"/>
    <path d="m79.25,63.86l10.4,26.84l-19.47,-21.2l2.27,-1.41l-15.01,-24.13l4.53,-2.82l15.01,24.13l2.27,-1.41z" fill="#ff0000" id="svg_3" stroke="#0000bf" stroke-linecap="round" stroke-linejoin="round" transform="rotate(-6.12393 73.5407 65.9154)"/>
    <path d="m-56.16,86.15l6.88,27.95l-16.58,-23.52l2.43,-1.11l-11.79,-25.86l4.85,-2.21l11.79,25.86l2.43,-1.11z" fill="#ff0000" id="svg_4" stroke="#0000bf" stroke-linecap="round" stroke-linejoin="round" transform="rotate(-12.0705 23.1206 27.4492) matrix(-0.261901 -0.965095 0.965095 -0.261901 -77.8725 -9.65798)"/>
    <path d="m53.96,34.98l4.96,-28.35l5.71,28.21l-2.67,0.04l0.38,28.42l-5.33,0.07l-0.38,-28.42l-2.67,0.04z" fill="#ff0000" id="svg_5" stroke="#0000bf" stroke-linecap="round" stroke-linejoin="round" transform="matrix(1 0 0 1 0 0) rotate(95.452 59.2924 34.997)"/>
  </g>
</svg>