<?xml version="1.0"?>
<svg width="96" height="96" xmlns="http://www.w3.org/2000/svg">
  <g>
    <path d="m93.14,87.7l-90.59,0c-1.42,0 -2.56,-1.03 -2.56,-2.3l0,-18.56c0,-1.27 1.14,-2.3 2.56,-2.3l90.61,0c1.4,0 2.54,1.03 2.54,2.3l0,18.56c0,1.27 -1.14,2.3 -2.56,2.3" fill="#C7A06B"/>
    <path d="m80.98,95.97l-66.26,0c-5.08,0 -9.2,-3.71 -9.2,-8.27l84.66,0c0,4.57 -4.12,8.27 -9.2,8.27" fill="#645D5A"/>
    <rect fill="#DFB288" height="9.93" width="29.45" x="33.13" y="54.61"/>
    <path d="m68.1,18.21c0,-10.75 -10.38,-19.34 -22.62,-18.08c-9.05,0.93 -16.45,7.43 -17.69,15.55c-1.01,6.73 2.08,12.86 7.34,16.68c3.52,2.55 5.36,6.52 5.36,10.57l0,11.68l14.72,0l0,-11.98c0,-3.92 1.82,-7.74 5.23,-10.19c4.67,-3.33 7.66,-8.45 7.66,-14.23" fill="#FAC176"/>
  </g>
</svg>