<?xml version="1.0"?>
<svg width="96" height="96" xmlns="http://www.w3.org/2000/svg">
  <defs>
    <linearGradient id="e" x1="0.00002492753446858842" x2="1.0000523328781128" y1="0.5000325441360474" y2="0.5000325441360474">
      <stop stop-color="#9E9E9E" offset="0"/>
      <stop stop-color="#A1A2A3" offset=".0374"/>
      <stop stop-color="#ACAFB1" offset=".0803"/>
      <stop stop-color="#BCC4C8" offset=".1257"/>
      <stop stop-color="#CEDBE0" offset=".1629"/>
      <stop stop-color="#D0DCE1" offset=".2183"/>
      <stop stop-color="#D7E1E5" offset=".2383"/>
      <stop stop-color="#E2EAED" offset=".2525"/>
      <stop stop-color="#F3F6F8" offset=".2639"/>
      <stop stop-color="#fff" offset=".2697"/>
      <stop stop-color="#E1E1E1" offset=".3298"/>
      <stop stop-color="#BDBDBD" offset=".4149"/>
      <stop stop-color="#A6A6A6" offset=".4841"/>
      <stop stop-color="#9E9E9E" offset=".5281"/>
      <stop stop-color="#A1A1A1" offset=".64"/>
      <stop stop-color="#ABABAB" offset=".7323"/>
      <stop stop-color="#BDBDBD" offset=".8176"/>
      <stop stop-color="#D5D5D5" offset=".8987"/>
      <stop stop-color="#F4F4F4" offset=".9761"/>
      <stop stop-color="#fff" offset="1"/>
    </linearGradient>
    <linearGradient id="f" x1="0.000097269396064803" x2="1.0001246929168701" y1="0.5000423192977905" y2="0.5000423192977905">
      <stop stop-color="#F70F34" offset="0"/>
      <stop stop-color="#F71738" offset=".0143"/>
      <stop stop-color="#F84551" offset=".0899"/>
      <stop stop-color="#F86666" offset=".1566"/>
      <stop stop-color="#F87B74" offset=".2113"/>
      <stop stop-color="#F98379" offset=".2472"/>
      <stop stop-color="#F86163" offset=".3868"/>
      <stop stop-color="#F83D4D" offset=".5688"/>
      <stop stop-color="#F7213E" offset=".7375"/>
      <stop stop-color="#F71436" offset=".8865"/>
      <stop stop-color="#F70F34" offset="1"/>
    </linearGradient>
    <radialGradient id="g" cx="353.7799987792969" cy="132.75999450683594" r="44.553001403808594" gradientTransform="matrix(1.8447 0 0 1.8447 -502.61 -63.4)" gradientUnits="userSpaceOnUse">
      <stop stop-color="#CEDBE0" offset="0"/>
      <stop stop-color="#C9D5DA" offset=".1192"/>
      <stop stop-color="#BDC5C8" offset=".2829"/>
      <stop stop-color="#A8AAAB" offset=".4717"/>
      <stop stop-color="#9E9E9E" offset=".5449"/>
    </radialGradient>
    <radialGradient id="h" cx="352.57000732421875" cy="-594.77001953125" r="35.42399978637695" gradientTransform="matrix(1.8447 0 0 1.4728 -502.61 1022.7)" gradientUnits="userSpaceOnUse">
      <stop stop-color="#fff" offset="0"/>
      <stop stop-color="#CEDBE0" offset=".5618"/>
      <stop stop-color="#9E9E9E" offset="1"/>
    </radialGradient>
  </defs>
  
  <g stroke-width="1.8447">
    <path d="m34.4960778874764,79.82411902306981 c-5.256125831549975,1.6758855989349821 -6.358999049052697,3.8911655148924504 -6.358999049052697,5.454489136972818 s1.1029902953389747,3.7789380461414157 6.358999049052697,5.454823645076396 c3.6264023509090095,1.1563610632651375 8.42224503193313,1.7931306892397147 13.50392488746622,1.7931306892397147 c5.08201436363667,0 9.877857044660788,-0.6364852940865351 13.50392488746622,-1.7931306892397147 c5.256125831549975,-1.6758855989349821 6.358999049052697,-3.8911655148924504 6.358999049052697,-5.454823645076396 c0,-1.5630058393819666 -1.1029902953389747,-3.778603538037835 -6.358999049052697,-5.454489136972818 c-3.6264023509090095,-1.1563610632651375 -8.421910523829549,-1.7931306892397147 -13.50392488746622,-1.7931306892397147 c-5.08184710958488,0 -9.877522536557208,0.6368030767849361 -13.50392488746622,1.7931306892397147 zm0.8154471295017466,8.351329313974203 c-3.084666477161465,-0.983604353171331 -4.489935020300359,-2.1915298406033012 -4.489935020300359,-2.8971746851049662 c0,-0.7052936109929064 1.4053521701647893,-1.9128845903212959 4.489935020300359,-2.8965056688978073 c3.370001889515065,-1.0742895000518247 7.876160552839045,-1.6660510606897356 12.688561384990367,-1.6660510606897356 c4.812735340254902,0 9.318726749527093,0.5917615606379101 12.688561384990367,1.6660510606897356 c3.084666477161465,0.9835876277661514 4.489935020300359,2.1911953324997206 4.489935020300359,2.8965056688978073 c0,0.705611393691308 -1.4053521701647893,1.913219098424877 -4.489935020300359,2.8971746851049662 c-3.3696673814114853,1.0742895000518247 -7.875826044735465,1.6660510606897356 -12.688561384990367,1.6660510606897356 c-4.8124008321513205,0 -9.318559495475302,-0.5917615606379101 -12.688561384990367,-1.6660510606897356 z"/>
    <path d="m65.17849918023336,85.27660111142116 v1.9573741680974144 c0,0.705611393691308 -1.4053521701647893,1.9128845903212959 -4.489935020300359,2.896840177001386 c-3.3696673814114853,1.0742895000518247 -7.875826044735465,1.6660510606897356 -12.688561384990367,1.6660510606897356 c-4.8124008321513205,0 -9.318559495475302,-0.5917615606379101 -12.688561384990367,-1.6660510606897356 c-3.084666477161465,-0.9835876277661514 -4.489935020300359,-2.1911953324997206 -4.489935020300359,-2.896840177001386 v-1.9573741680974144 h-2.6844275312281907 v1.9573741680974144 c0,1.5633068966751886 1.1029902953389747,3.778603538037835 6.358999049052697,5.454489136972818 c3.6264023509090095,1.1563610632651375 8.42224503193313,1.7931306892397147 13.50392488746622,1.7931306892397147 c5.08201436363667,0 9.877857044660788,-0.6364852940865351 13.50392488746622,-1.7931306892397147 c5.256125831549975,-1.6758855989349821 6.358999049052697,-3.890831006788874 6.358999049052697,-5.454489136972818 v-1.9573741680974144 z"/>
    <path d="m65.35746101564854,32.211908100033796 v52.75192793454025 c0,2.7501583735816286 -7.841538964118533,4.9796548839412385 -17.402784088741004,4.9796548839412385 c-9.561914140829634,0 -17.312466900774453,-2.2294965103596116 -17.312466900774453,-4.9796548839412385 v-52.75360047505815 " fill="url(#e)" />
    <path d="m29.29949449836363,32.211908100033796 v52.75360047505815 c0,2.0389941453708955 2.0329729995064576,3.657846112645516 6.042219874962592,4.811230053788793 c3.3873963109012175,0.974338478702169 7.86662707188702,1.5105549687406468 12.613297061684905,1.5105549687406468 c9.028206461568004,0 18.74583412461405,-1.9782809245711541 18.74583412461405,-6.321701395503543 v-52.75192793454025 h-2.6847620393317717 v52.75192793454025 c0,0.20794696259040574 -0.7370718808329916,1.2578675472964393 -4.142046592577328,2.2303327806185624 c-3.177157967801289,0.9070856244774433 -7.409856256448752,1.4068909074412566 -11.918523730549584,1.4068909074412566 c-4.502646328236392,0 -8.718451957653073,-0.4991864429721907 -11.871190833893037,-1.4062720674496338 c-3.4036199539248386,-0.9792724732299722 -4.099396809370898,-2.009055670100499 -4.099396809370898,-2.231001796825721 v-52.75360047505815 z" />
    <path d="m30.667465387953385,71.28078205764083 c0,2.7501583735816286 7.751221776151978,4.9796548839412385 17.312466900774453,4.9796548839412385 c9.561579632726051,0 17.402784088741004,-2.2294965103596116 17.402784088741004,-4.9796548839412385 v-27.540052167727957 c0,2.7501583735816286 -7.841204456014952,4.9796548839412385 -17.402784088741004,4.9796548839412385 c-9.561579632726051,0 -17.312466900774453,-2.2294965103596116 -17.312466900774453,-4.9796548839412385 z" fill="url(#f)" />
    <path d="m64.0411716280619,43.74072988991286 c0,0.20794696259040574 -0.7370718808329916,1.2578675472964393 -4.1423811006809075,2.2303327806185624 c-3.1769907137494995,0.907068899072264 -7.409689002396963,1.4068909074412566 -11.918523730549584,1.4068909074412566 c-4.502311820132812,0 -8.718451957653073,-0.49920316837736955 -11.871190833893037,-1.4062720674496338 c-3.4034526998730485,-0.9789546905315718 -4.099396809370898,-2.0088884160487095 -4.099396809370898,-2.231001796825721 h-2.6844275312281907 v27.540052167727957 c0,2.0389941453708955 2.0329729995064576,3.657846112645516 6.041885366859012,4.811230053788793 c3.3873963109012175,0.974338478702169 7.866794325938809,1.5105549687406468 12.613297061684905,1.5105549687406468 c9.028540969671582,0 18.74583412461405,-1.9782809245711541 18.74583412461405,-6.321701395503543 v-27.540052167727957 zm0,3.475037434039134 v24.064512971533453 c0,0.20764590529718388 -0.7370718808329916,1.2578675472964393 -4.1423811006809075,2.2303327806185624 c-3.1769907137494995,0.907068899072264 -7.409689002396963,1.4068909074412566 -11.918523730549584,1.4068909074412566 c-4.502311820132812,0 -8.718451957653073,-0.49920316837736955 -11.871190833893037,-1.4062720674496338 c-3.4034526998730485,-0.9792724732299722 -4.099396809370898,-2.009055670100499 -4.099396809370898,-2.231001796825721 v-24.044442485318665 c0.8975019673098817,0.4893184539165854 2.013738783550617,0.9295980198483662 3.3574578356308216,1.3161890351555836 c3.3873963109012175,0.9740206960037693 7.866794325938809,1.5105549687406468 12.613297061684905,1.5105549687406468 c6.118153214475214,0 12.548235235538627,-0.9098453163319774 16.0607375771787,-2.84716572361978 z" />
    <path d="m65.17849918023336,28.179412911378876 v1.9690819517227085 c0,0.7052936109929064 -1.4053521701647893,1.9128845903212959 -4.489935020300359,2.896840177001386 c-3.3696673814114853,1.074306225457004 -7.875826044735465,1.6660510606897356 -12.688561384990367,1.6660510606897356 c-4.8124008321513205,0 -9.318559495475302,-0.5917615606379101 -12.688561384990367,-1.6660510606897356 c-3.084666477161465,-0.9835876277661514 -4.489935020300359,-2.1915298406033012 -4.489935020300359,-2.896840177001386 v-1.9690819517227085 h-2.6844275312281907 v1.9690819517227085 c0,1.5630058393819666 1.1029902953389747,3.778603538037835 6.358999049052697,5.454489136972818 c3.6264023509090095,1.1563610632651375 8.42224503193313,1.7931306892397147 13.50392488746622,1.7931306892397147 c5.08201436363667,0 9.877857044660788,-0.636502019491713 13.50392488746622,-1.7931306892397147 c5.256125831549975,-1.6758855989349821 6.358999049052697,-3.8911655148924504 6.358999049052697,-5.454489136972818 v-1.9690819517227085 z" />
    <path d="m66.51987667558846,28.179412911378876 c0,3.261454009903408 -8.291954125588784,5.905573314650226 -18.520041154697658,5.905573314650226 c-10.228588791264249,0 -18.520041154697658,-2.6437847966432395 -18.520041154697658,-5.905573314650226 c0,-3.2611195017998287 8.291954125588784,-5.905238806546648 18.520041154697658,-5.905238806546648 c10.228588791264249,0 18.520041154697658,2.6437847966432395 18.520041154697658,5.905238806546648 z" fill="url(#g)" />
    <path d="m34.4960778874764,22.72525828250963 c-5.256125831549975,1.6758855989349821 -6.358999049052697,3.890831006788874 -6.358999049052697,5.454489136972818 s1.1029902953389747,3.7789380461414157 6.358999049052697,5.454823645076396 c3.6264023509090095,1.156060005971916 8.42224503193313,1.7931306892397147 13.50392488746622,1.7931306892397147 c5.08201436363667,0 9.877857044660788,-0.6368030767849361 13.50392488746622,-1.7931306892397147 c5.256125831549975,-1.6758855989349821 6.358999049052697,-3.8911655148924504 6.358999049052697,-5.454823645076396 s-1.1029902953389747,-3.778603538037835 -6.358999049052697,-5.454489136972818 c-3.6264023509090095,-1.1563610632651375 -8.421910523829549,-1.7931306892397147 -13.50392488746622,-1.7931306892397147 c-5.08184710958488,0.0003345081035798377 -9.877522536557208,0.6368030767849361 -13.50392488746622,1.7931306892397147 zm0.8154471295017466,8.350994805870624 c-3.084666477161465,-0.9835876277661514 -4.489935020300359,-2.1911953324997206 -4.489935020300359,-2.896840177001386 s1.4053521701647893,-1.9128845903212959 4.489935020300359,-2.896840177001386 c3.370001889515065,-1.0742895000518247 7.876160552839045,-1.6660510606897356 12.688561384990367,-1.6660510606897356 c4.812735340254902,0 9.318726749527093,0.5917615606379101 12.688561384990367,1.6660510606897356 c3.084666477161465,0.9835876277661514 4.489935020300359,2.1911953324997206 4.489935020300359,2.896840177001386 s-1.4053521701647893,1.913219098424877 -4.489935020300359,2.896840177001386 c-3.3696673814114853,1.074306225457004 -7.875826044735465,1.6660510606897356 -12.688561384990367,1.6660510606897356 c-4.8124008321513205,0.0003345081035798377 -9.318559495475302,-0.5914437779395102 -12.688561384990367,-1.6660510606897356 z" />
    <path d="m33.801806318496446,27.881700699192805 c0,-6.095908425587155 6.1894034405377205,-11.037931147875662 13.824550904747493,-11.037931147875662 s13.824550904747493,4.942357230392088 13.824550904747493,11.037931147875662 " fill="url(#h)" />
    <path d="m37.01325136691468,19.02894373795243 c-2.936813895379177,2.3447345520428655 -4.5541605761876855,5.489110725693331 -4.5541605761876855,8.853760485551117 h2.6847620393317717 c0,-5.34610851141295 5.599163891771097,-9.69555012820978 12.482169885081605,-9.69555012820978 s12.482169885081605,4.349274362745037 12.482169885081605,9.69555012820978 h2.6847620393317717 c0,-3.3648170139095774 -1.6173132299981527,-6.5093604416118325 -4.5541605761876855,-8.853760485551117 c-2.8480019938787295,-2.2738188340839405 -6.61707205096454,-3.5265516819904295 -10.61277134822569,-3.5265516819904295 s-7.76443484624338,1.252314712777014 -10.61277134822569,3.5265516819904295 z" />
    <path d="m42.66108618775663,4.47282361067583 l-0.045044861228060964,11.154841730076816 c0,1.686422604197747 2.7650439841909304,3.05322271542496 6.175521354239156,3.05322271542496 c3.4108118781518053,0 6.175855862342736,-1.3670844431152558 6.175855862342736,-3.05322271542496 l-0.045044861228060964,-11.154507221973239 " fill="#fff" />
    <path d="m41.27455009841822,15.62197870299179 c0,1.3584541340428957 0.9076877390638872,2.552464084365944 2.5561436735053222,3.367660332790007 c1.3476495222972669,0.6664237693569305 3.109587330878162,1.0335631384409796 4.961424192296138,1.0335631384409796 c1.852171369521556,0 3.614025551076556,-0.3668383117908284 4.961758700399719,-1.0335631384409796 c1.6484726598466142,-0.815129346803346 2.5561436735053222,-2.009055670100499 2.5561436735053222,-3.3619736950291497 l-0.045044861228060964,-11.160026605682303 l-2.6844275312281907,0.010804611745628755 l0.04473544123224959,11.154507221973239 c0,0.49117497389145354 -1.6934472743729239,1.7054895661017975 -4.8331403345732715,1.7054895661017975 c-3.1393585520967675,0 -4.8331403345732715,-1.214682551124282 -4.8331403345732715,-1.7111762038626543 l0.045044861228060964,-11.149656854471328 l-2.6844275312281907,-0.010804611745628755 z" />
    <path d="m54.92248072447556,4.47282361067583 c0,0.8897915555223659 -2.7446389898725605,1.610823772788704 -6.130530014307668,1.610823772788704 c-3.3860582784868973,0 -6.130530014307668,-0.7210322172663381 -6.130530014307668,-1.6111415554871051 c0,-0.889490498229144 2.7446389898725605,-1.610823772788704 6.130530014307668,-1.610823772788704 s6.130530014307668,0.7213332745595601 6.130530014307668,1.6111415554871051 z" fill="#fff" />
    <path d="m44.11619643832893,2.0342595355788333 c-1.8558509586609346,0.4874786593468971 -2.796487745927435,1.3075420006780454 -2.796487745927435,2.4370587886309 c0,1.1298345706512565 0.9410047461804387,1.9498477357668687 2.796487745927435,2.4373932967344816 c1.2661967990755771,0.332601407389432 2.926778652271781,0.5158616719356448 4.676088779942538,0.5158616719356448 s3.4101428619446463,-0.18326026454621386 4.676088779942538,-0.5158616719356448 c1.8558509586609346,-0.4874786593468971 2.796487745927435,-1.3075420006780454 2.796487745927435,-2.4370587886309 c0,-1.1298345706512565 -0.9410047461804387,-1.9498477357668687 -2.796487745927435,-2.4373932967344816 c-1.2661967990755771,-0.332601407389432 -2.926778652271781,-0.5158616719356448 -4.676088779942538,-0.5158616719356448 s-3.4101428619446463,0.18326026454621386 -4.676088779942538,0.5158616719356448 zm4.676088779942538,2.168950543611662 c1.3306899614457701,0 2.430201372507514,0.11631515777678107 3.2617885180069877,0.26872708501086234 c-0.8314867930684003,0.15210417977878768 -1.9311152819663975,0.26842602771764074 -3.2617885180069877,0.26842602771764074 s-2.430201372507514,-0.11631515777678107 -3.2617885180069877,-0.26842602771764074 c0.8314867930684003,-0.15241359977459915 1.9311152819663975,-0.26872708501086234 3.2617885180069877,-0.26872708501086234 z" />
    <path d="m46.23530527450719,13.154981439090498 c0,1.4312598227870474 1.1640714750526526,2.5952811216241636 2.595113867572374,2.5952811216241636 c1.4312598227870474,0 2.5952811216241636,-1.1640714750526526 2.5952811216241636,-2.5952811216241636 c0,-1.4309587654938258 -1.1640714750526526,-2.595113867572374 -2.5952811216241636,-2.595113867572374 c-1.4309587654938258,0 -2.595113867572374,1.164389257751054 -2.595113867572374,2.595113867572374 zm0.8947422754553473,0 c0,-0.9376262143342827 0.7629962588604283,-1.7003046904963104 1.7003046904963104,-1.7003046904963104 c0.9376262143342827,0 1.70063919859989,0.7626784761620286 1.70063919859989,1.7003046904963104 s-0.7629962588604283,1.7003046904963104 -1.70063919859989,1.7003046904963104 c-0.937308431635882,0 -1.7003046904963104,-0.7623774188688064 -1.7003046904963104,-1.7003046904963104 z" />
    <path d="m50.20591646399985,12.962639279532112 c-0.04381052632585135,0.7222698972495842 -0.7114652855039546,1.2695920563269123 -1.4911200479226596,1.2223929629117976 c-0.779336979720303,-0.046896363581375326 -1.3760325348860167,-0.6710567065915117 -1.3322286987222371,-1.3933098784359161 c0.04381052632585135,-0.7225709545428056 0.711164228210733,-1.2695920563269123 1.490802265224259,-1.2223929629117976 s1.3763503175844174,0.6710567065915117 1.3325297560154585,1.3933098784359161 z" />
  </g>
</svg>