<?xml version="1.0"?>
<svg width="96" height="96" xmlns="http://www.w3.org/2000/svg" xmlns:svg="http://www.w3.org/2000/svg">
  <g>
    <path d="m66.68,23.07c-3.37,0.77 -7.79,7.9 -11.34,13.64c-2.98,4.78 -4.85,7.75 -6.28,8.33c-0.33,0.13 -0.69,0.21 -1.06,0.21c-2.2,0 -4.98,-2.35 -8.1,-5.02c-2.65,-2.26 -5.36,-4.6 -7.83,-5.53c-4.45,-1.66 -14.3,6.61 -17.89,10.11l0,2.33c0,3.62 3.22,6.58 7.16,6.58l52.17,0c3.96,0 7.16,-2.95 7.16,-6.58l0,-14.48c-1,-0.88 -7.04,-6.2 -12.44,-9.36c-0.49,-0.28 -0.98,-0.35 -1.55,-0.22z" fill="#303A3F" />
    <path d="m51.85,26.97c-1.65,2.76 -4.77,4.48 -8.16,4.48c-5.14,0 -9.34,-3.85 -9.34,-8.59c0,-4.73 4.18,-8.59 9.34,-8.59c0.96,0 1.94,0.17 3,0.49l1.57,0.49l-1.55,0.58c-2.28,0.86 -3.75,2.88 -3.75,5.12c0,3.68 3.96,6.59 8.12,5.17l1.57,-0.54l-0.8,1.4z" fill="#303A3F" />
    <path d="m84.58,0l-73.47,0c-6.12,0 -11.12,4.58 -11.12,10.16l0,46.9c0,5.59 5,10.16 11.12,10.16l73.47,0c6.12,0 11.12,-4.58 11.12,-10.16l0,-46.9c0,-5.59 -5,-10.16 -11.12,-10.16zm3,52.53c0,4.8 -4.12,7.43 -9.36,7.43l-60.37,0c-5.24,0 -9.85,-2.62 -9.85,-7.42l0,-36.46c0,-4.8 4.3,-8.57 9.55,-8.57l60.37,0c5.24,0 9.67,3.75 9.67,8.56l0,36.46z" fill="#303A3F" />
  </g>
  <g>
    <path d="m37.16,69.51c0.14,5.29 4.79,9.55 10.54,9.55s10.42,-4.26 10.54,-9.55l-21.09,0z" fill="#303A3F" />
    <path d="m61.17,95.34l-1.35,0.28c-1.14,0.24 -2.39,-0.41 -2.73,-1.46l-6.77,-20.01c-0.41,-1.21 0.35,-2.45 1.69,-2.73l1.35,-0.28c1.14,-0.24 2.39,0.41 2.73,1.46l6.77,20.02c0.43,1.2 -0.35,2.43 -1.69,2.71z" fill="#303A3F" />
    <path d="m34.53,95.34l1.35,0.28c1.14,0.24 2.39,-0.41 2.73,-1.46l6.79,-20.01c0.41,-1.21 -0.35,-2.45 -1.69,-2.73l-1.35,-0.28c-1.14,-0.24 -2.39,0.41 -2.73,1.46l-6.77,20.02c-0.43,1.2 0.33,2.43 1.67,2.71z" fill="#303A3F" />
  </g>
</svg>