<?xml version="1.0"?>
<svg width="96" height="96" xmlns="http://www.w3.org/2000/svg">
  <g>
    <line stroke="#ff0000" fill="none" stroke-width="5" x1="38.589038" y1="45.095887" x2="38.417805" y2="21.465752"/>
    <line fill="none" stroke="#000000" stroke-width="5" x1="0.232874" y1="48.000001" x2="95.609584" y2="48.000001"/>
    <line stroke="#ff0000" fill="none" stroke-width="5" x1="3.143833" y1="45.095887" x2="2.9726" y2="12.561642"/>
    <line stroke="#ff0000" fill="none" stroke-width="5" x1="24.37671" y1="45.095887" x2="24.205477" y2="24.205476"/>
    <line stroke="#ff0000" fill="none" stroke-width="5" x1="31.56849" y1="45.095887" x2="31.397257" y2="25.746573"/>
    <line stroke="#ff0000" fill="none" stroke-width="5" x1="52.287666" y1="45.095889" x2="52.116433" y2="16.671231"/>
    <line stroke="#ff0000" fill="none" stroke-width="5" x1="80.54109" y1="45.095889" x2="80.369857" y2="20.267122"/>
    <line stroke="#ff0000" fill="none" stroke-width="5" x1="45.267118" y1="45.095887" x2="45.095885" y2="18.383561"/>
    <line stroke="#ff0000" fill="none" stroke-width="5" x1="10.164382" y1="45.095887" x2="9.993149" y2="18.041092"/>
    <line stroke="#ff0000" fill="none" stroke-width="5" x1="17.356162" y1="45.095887" x2="17.184929" y2="19.068491"/>
    <line stroke="#ff0000" fill="none" stroke-width="5" x1="59.479447" y1="45.095889" x2="59.308214" y2="12.732875"/>
    <line stroke="#ff0000" fill="none" stroke-width="5" x1="66.671228" y1="45.09589" x2="66.499995" y2="14.958902"/>
    <line stroke="#ff0000" fill="none" stroke-width="5" x1="73.863008" y1="45.09589" x2="73.691775" y2="16.842463"/>
    <line stroke="#ff0000" fill="none" stroke-width="5" x1="87.219172" y1="45.095889" x2="87.047939" y2="20.267122"/>
    <path d="m2.63013,14.1027l29.21917,11.411l28.424698,-14.897301c9.360699,3.8813 18.721401,7.7626 28.082203,11.6439" stroke-linecap="round" stroke-linejoin="round" stroke-dasharray="null" stroke-width="5" stroke="#007fff" fill="none"/>
  </g>
</svg>