<?xml version="1.0"?>
<svg width="96" height="96" xmlns="http://www.w3.org/2000/svg">
  <g>
    <line stroke="#ff0000" fill="none" stroke-width="5" x1="38.589038" y1="45.095887" x2="38.417805" y2="15.301367"/>
    <line fill="none" stroke="#000000" stroke-width="5" x1="0.232874" y1="48.000001" x2="95.609584" y2="48.000001"/>
    <line stroke="#ff0000" fill="none" stroke-width="5" x1="3.143833" y1="45.095887" x2="2.9726" y2="13.589039"/>
    <line stroke="#ff0000" fill="none" stroke-width="5" x1="24.37671" y1="45.095887" x2="24.205477" y2="24.205476"/>
    <line stroke="#ff0000" fill="none" stroke-width="5" x1="31.56849" y1="45.095887" x2="31.397257" y2="19.753421"/>
    <line stroke="#ff0000" fill="none" stroke-width="5" x1="52.287666" y1="45.095889" x2="52.116433" y2="9.821917"/>
    <line stroke="#ff0000" fill="none" stroke-width="5" x1="80.54109" y1="45.095889" x2="80.369857" y2="16.842466"/>
    <line stroke="#ff0000" fill="none" stroke-width="5" x1="45.267118" y1="45.095887" x2="45.095885" y2="11.876712"/>
    <line stroke="#ff0000" fill="none" stroke-width="5" x1="10.164382" y1="45.095887" x2="9.993149" y2="23.691777"/>
    <line stroke="#ff0000" fill="none" stroke-width="5" x1="17.356162" y1="45.095887" x2="17.184929" y2="27.630134"/>
    <line stroke="#ff0000" fill="none" stroke-width="5" x1="59.479447" y1="45.095889" x2="59.308214" y2="8.623286"/>
    <line stroke="#ff0000" fill="none" stroke-width="5" x1="66.671228" y1="45.09589" x2="66.499995" y2="10.335613"/>
    <line stroke="#ff0000" fill="none" stroke-width="5" x1="73.863008" y1="45.09589" x2="73.691775" y2="13.246573"/>
    <line stroke="#ff0000" fill="none" stroke-width="5" x1="87.219172" y1="45.095889" x2="87.047939" y2="21.465753"/>
    <path stroke="#007fff" d="m2.9726,13.760271c16.438354,41.609591 39.725875,-36.472616 84.5274,8.32877" stroke-linecap="round" stroke-linejoin="round" stroke-dasharray="null" stroke-width="5" fill="none"/>
  </g>
</svg>