<?xml version="1.0"?>
<svg width="96" height="96" xmlns="http://www.w3.org/2000/svg">
  <g>
    <path stroke="#000000" d="m23.021055,37.217987c5.823954,11.166866 6.960915,14.558067 5.035339,15.018669c-3.761551,0.899632 -3.005672,6.044853 2.25926,15.378448c6.602776,11.705376 19.535542,18.893425 31.683445,17.609848c4.715134,-0.498222 10.045731,-1.52636 11.84584,-2.284912c1.800125,-0.758469 0.695465,0.654556 -2.454704,3.14006c-15.759113,12.433907 -35.222282,11.567764 -50.74966,-2.258354c-6.19107,-5.512779 -14.70906,-21.619667 -14.70906,-27.813759c0,-1.754688 -1.404305,-3.454975 -3.120671,-3.778378c-2.806958,-0.528751 -2.42998,-1.921112 3.749366,-13.849026c3.778557,-7.293638 7.335428,-13.784348 7.904165,-14.423794c0.568735,-0.639402 4.419252,5.328079 8.556681,13.261196l0,0zm50.061892,21.528267c-5.823929,-11.166798 -6.960892,-14.558006 -5.035332,-15.018547c3.761536,-0.899696 3.005646,-6.04493 -2.259247,-15.37851c-6.602768,-11.705357 -19.535576,-18.893473 -31.683418,-17.609933c-4.715187,0.498225 -10.045809,1.526454 -11.845882,2.284963c-1.80011,0.758516 -0.695473,-0.654502 2.454678,-3.14005c15.75914,-12.433905 35.222328,-11.567808 50.74968,2.25839c6.191078,5.51275 14.709061,21.619594 14.709061,27.813643c0,1.754787 1.404251,3.45507 3.120674,3.778408c2.806946,0.528835 2.43,1.921173 -3.749382,13.849083c-3.778595,7.293655 -7.335411,13.784363 -7.904137,14.423744c-0.568825,0.639496 -4.419281,-5.328072 -8.556694,-13.261124l0,-0.000069z" />
  </g>
</svg>