<?xml version="1.0"?>
<svg width="96" height="96" xmlns="http://www.w3.org/2000/svg">
  <g>
    <path d="m7.59,91.79c1.22,0.74 4.59,-0.85 13.38,-21.33c8.89,-22.78 6.67,-22.53 6.76,-23.24" fill="none" fill-opacity="0.75" fill-rule="evenodd"  stroke="#000000" stroke-width="5"/>
    <path d="m4.28,90.38c-1.49,-0.04 -3.47,-2 3.1,-24.23c5.57,-15.44 9.14,-21.98 11.44,-23.11" fill="none" fill-opacity="0.75" fill-rule="evenodd"  stroke="#000000" stroke-width="5"/>
    <path d="m18.18,45.13c-2.86,-0.62 -1.58,-4.55 1.21,-4.42" fill="none" fill-opacity="0.75" fill-rule="evenodd"  stroke="#000000" stroke-width="5"/>
    <path d="m18.61,43.98c-6.02,8.06 -15.16,33.11 -14.76,45.26c-0.16,0.53 4.34,1.65 4.59,1.27c8.17,-9.87 17.67,-34.49 19.02,-44.13c-4.37,-2.45 -8.85,-2.39 -8.85,-2.39z" fill="#8c9fbd" fill-rule="evenodd"  stroke="#000000" stroke-width="0.60646286pt"/>
    <path d="m27.47,47.5c1.88,0.25 3.95,-1.87 1.62,-4.28" fill="none" fill-opacity="0.75" fill-rule="evenodd"  stroke="#000000" stroke-width="5"/>
    <path d="m18.18,41.1c0.11,-7.05 5.48,-18.68 6.21,-20.53c0.73,-1.85 9.2,-19.13 14.75,-17.7c5.56,1.44 4.23,11.3 -1.09,25.15c-5.32,13.86 -8.37,16.17 -8.37,16.17" fill="none" fill-opacity="0.75" fill-rule="evenodd"  stroke="#000000" stroke-width="5"/>
    <path d="m38.91,3.76c-7.16,-1.78 -19.65,26.69 -19.89,37.31c-0.44,1.47 2.35,1.31 5.22,1.94c2.94,0.65 4.48,2.17 4.88,0.82c7.24,-10.3 17.36,-37.98 9.79,-40.07z" fill="#8c9fbd" fill-rule="evenodd"  stroke="#000000" stroke-width="0.60646286pt"/>
    <path d="m17.7,42.76c-0.81,2.31 2.22,1.54 5.24,2.27c3.03,0.73 5.41,2.46 6.05,0.81c0.65,-1.65 -2.41,-3.64 -4.88,-4.06c-2.46,-0.42 -5.76,-0.95 -6.42,0.98z" fill="#fae472" fill-rule="evenodd"  stroke="#000000" stroke-width="2"/>
    <path d="m6.25,85.95c3.76,-19.33 9.13,-31.43 11.25,-35.89c1.94,-4.67 -2.83,12.37 -3.81,14.85l-7.45,21.04z" fill="#ffffff" fill-opacity="0.54" fill-rule="evenodd"  stroke-width="1pt"/>
    <path d="m21.6,40.39c2.76,-14.16 8.24,-25 9.82,-26.79c1.58,-1.79 -0.81,6.5 -0.81,6.5l-9.02,20.29z" fill="#ffffff" fill-opacity="0.54" fill-rule="evenodd"  stroke-width="1pt"/>
    <path d="m82.3,62.42c-0.7,-0.05 -1.41,-0.03 -2.1,-0.03c-5.39,-0.08 -10.77,-0.08 -16.17,0.03c-10.52,0.25 -21.26,0.46 -31.62,2.2c-0.35,0.07 -2.55,0.3 -2.74,0.72c-0.11,0.24 0.65,-0.24 0.71,-0.5c0.06,-0.28 -0.68,-0.84 -0.34,-0.82c3.38,0.16 7.01,1.09 10.39,1.49c16.21,1.84 32.69,2.68 48.77,5.2c18.87,3.72 -8.74,7.04 -12.46,7.32c-11.91,0.77 -24.45,0.25 -36.2,2.23c-0.19,0.05 0.02,-1.3 1.57,-0.64c3.07,1.29 6.25,2.39 9.37,3.58c2.51,0.96 12.43,3.61 11.24,7.07c-2.59,2.79 -9.27,2.48 -13.01,2.65c-4.75,0.17 -9.49,0.19 -14.24,0.21c-2.01,0.02 -4.02,0.02 -6.01,0.21c-1.62,0.17 -3.23,0.3 -4.86,0.38c-1.73,0.08 -3.47,0.21 -5.2,0.36c-1.51,0.15 -3.02,0.35 -4.54,0.44c-1.21,0.06 -2.41,0.15 -3.62,0.19c-1.1,0.03 -2.2,0.02 -3.3,0.01c-0.92,-0.01 -1.84,-0.04 -2.76,0.05l-0.7,-2.43c1.18,-0.09 2.36,-0.09 3.55,-0.08c0.98,0.01 1.96,0.02 2.94,-0.01c1.14,-0.03 2.27,-0.11 3.41,-0.17c1.45,-0.08 2.88,-0.27 4.32,-0.41c1.82,-0.15 3.65,-0.27 5.47,-0.37c1.52,-0.08 3.01,-0.22 4.52,-0.37c2.25,-0.2 4.52,-0.18 6.79,-0.16c4.62,0.05 9.24,0.08 13.85,-0.11c2.46,-0.13 4.95,-0.25 7.36,-0.69c0.18,-0.03 1.74,-0.48 1.77,-0.35c0.44,0.71 -1.29,-1.18 -2.08,-1.61c-2.26,-1.21 -4.71,-2.14 -7.13,-3.09c-1.33,-0.5 -19.25,-5.55 -9.69,-6.9c12.15,-1.15 24.47,-0.87 36.65,-1.79c2.23,-0.2 21.92,-1.11 11.84,-3.62c-15.73,-3.08 -32.27,-3.84 -48.29,-5.27c-3.02,-0.26 -24,-2.46 -8.44,-4.84c10.72,-1.42 21.66,-1.7 32.49,-2.11c5.45,-0.2 10.9,-0.37 16.36,-0.45c0.7,-0.01 1.41,0.01 2.1,-0.03l0,2.5z" fill="#000000" fill-opacity="0.75" fill-rule="nonzero"  stroke-width="1pt"/>
    <path d="m4.1,90.03c-1.04,5.22 0.55,5.92 3.81,0.99c-1.47,-0.1 -3.25,-0.72 -3.81,-0.99z" fill="#929292" fill-rule="evenodd"  stroke="#000000" stroke-width="3"/>
  </g>
</svg>